<?xml version="1.0" encoding="utf-8"?>
<svg version="1.1" xmlns="http://www.w3.org/2000/svg" width="512" height="512" xmlns:bx="https://boxy-svg.com">
  <defs>
    <linearGradient id="gradient-2" bx:pinned="true">
      <stop offset="0.011" style="stop-color: rgb(255, 0, 0);"/>
      <stop offset="0.243" style="stop-color: rgb(255, 203, 0);"/>
      <stop offset="0.415" style="stop-color: rgb(232, 254, 0);"/>
      <stop offset="0.551" style="stop-color: rgb(0, 255, 21);"/>
      <stop offset="0.687" style="stop-color: rgb(0, 221, 225);"/>
      <stop offset="0.817" style="stop-color: rgb(41, 149, 255);"/>
      <stop offset="0.95" style="stop-color: rgb(134, 70, 254);"/>
    </linearGradient>
    <linearGradient id="gradient-2-0" href="#gradient-2" gradientUnits="userSpaceOnUse" x1="122.397" y1="-0.121" x2="122.397" y2="376.659"/>
    <linearGradient id="gradient-2-1" href="#gradient-2" gradientUnits="userSpaceOnUse" x1="122.172" y1="-0.032" x2="122.172" y2="377.298"/>
  </defs>
  <path d="M0 0 C1.62107666 -0.01073296 1.62107666 -0.01073296 3.27490234 -0.02168274 C6.8295381 -0.03852248 10.38290433 -0.01919315 13.9375 0.00219727 C16.41796981 0.00136814 18.89843956 -0.00109288 21.37890625 -0.00511169 C26.57048129 -0.00796649 31.76162415 0.0067014 36.953125 0.03417969 C43.59765731 0.06826099 50.24141703 0.06224071 56.88598633 0.04351711 C62.00592452 0.03293339 67.12568389 0.0418976 72.24560547 0.05690193 C74.69514433 0.06207407 77.14470195 0.06161375 79.59423828 0.05535698 C83.02156538 0.04988849 86.44779773 0.07033431 89.875 0.09765625 C90.88095215 0.09113037 91.8869043 0.08460449 92.92333984 0.07788086 C100.55202845 0.1809481 106.40859671 1.87268054 111.87890625 7.36547852 C112.74386719 8.36063477 113.60882813 9.35579102 114.5 10.38110352 C114.97050781 10.91477539 115.44101563 11.44844727 115.92578125 11.99829102 C117.27463546 13.5324274 118.60658407 15.08137938 119.9375 16.63110352 C121.10347718 17.96503983 122.27004071 19.29846414 123.4375 20.63110352 C124.241875 21.55922852 124.241875 21.55922852 125.0625 22.50610352 C127.48300075 25.2493377 129.95950642 27.9399492 132.4375 30.63110352 C136.03762756 34.54091947 139.58167605 38.48976819 143.0625 42.50610352 C145.48300075 45.2493377 147.95950642 47.9399492 150.4375 50.63110352 C154.03762756 54.54091947 157.58167605 58.48976819 161.0625 62.50610352 C163.48300075 65.2493377 165.95950642 67.9399492 168.4375 70.63110352 C172.03762756 74.54091947 175.58167605 78.48976819 179.0625 82.50610352 C181.48300075 85.2493377 183.95950642 87.9399492 186.4375 90.63110352 C190.03762756 94.54091947 193.58167605 98.48976819 197.0625 102.50610352 C199.48300075 105.2493377 201.95950642 107.9399492 204.4375 110.63110352 C208.03762756 114.54091947 211.58167605 118.48976819 215.0625 122.50610352 C217.48300075 125.2493377 219.95950642 127.9399492 222.4375 130.63110352 C226.03762756 134.54091947 229.58167605 138.48976819 233.0625 142.50610352 C235.48300075 145.2493377 237.95950642 147.9399492 240.4375 150.63110352 C244.0333288 154.53625092 247.57688108 158.47694035 251.046875 162.49438477 C252.5772864 164.22400261 254.12883536 165.92233617 255.703125 167.61157227 C256.19490234 168.14073242 256.68667969 168.66989258 257.19335938 169.21508789 C258.16484088 170.25768438 259.13991878 171.29694533 260.11914062 172.33227539 C265.56162691 178.17963906 267.86874741 182.69705498 267.9375 190.63110352 C267.11967428 198.12783928 261.92355154 202.42657085 256.9375 207.63110352 C255.43137279 209.29223524 253.93125278 210.95883547 252.4375 212.63110352 C189.4375 282.63110352 189.4375 282.63110352 126.4375 352.63110352 C125.70144531 353.4496582 124.96539062 354.26821289 124.20703125 355.11157227 C122.64477799 356.84591538 121.07949577 358.5775333 119.51171875 360.30688477 C118.72410156 361.17700195 117.93648437 362.04711914 117.125 362.94360352 C116.41730469 363.72348633 115.70960938 364.50336914 114.98046875 365.30688477 C112.89080289 367.59441761 112.89080289 367.59441761 111.17578125 370.17407227 C106.93666481 374.82748281 102.04057599 376.81428354 95.77734375 377.14576721 C93.81006541 377.17234608 91.84241648 377.17731393 89.875 377.16455078 C88.79428223 377.17316635 87.71356445 377.18178192 86.60009766 377.19065857 C83.04565132 377.21326803 79.49199654 377.2065889 75.9375 377.19750977 C73.45702888 377.20274721 70.97655975 377.20902414 68.49609375 377.21629333 C63.30459197 377.22668808 58.11336445 377.22214852 52.921875 377.20751953 C46.27726767 377.19032608 39.63352461 377.21384016 32.98901367 377.24900913 C27.86908261 377.27099354 22.74935806 377.26953911 17.62939453 377.26124382 C15.17984061 377.26042503 12.73027142 377.26727448 10.28076172 377.28201485 C6.85330399 377.29948059 3.42739607 377.28489941 0 377.26220703 C-1.00595215 377.27389923 -2.0119043 377.28559143 -3.04833984 377.29763794 C-9.57687956 377.2099229 -14.04952292 375.93053847 -19.0625 371.63110352 C-23.11377325 366.99213831 -23.52269775 362.51429509 -23.59375 356.47485352 C-22.23950677 349.22566916 -17.20332831 344.29948356 -12.25 339.19360352 C-10.98611249 337.86630325 -9.7230804 336.53818786 -8.4609375 335.20922852 C-7.86506836 334.58467773 -7.26919922 333.96012695 -6.65527344 333.31665039 C-4.30256226 330.82690208 -2.06586259 328.24640333 0.16796875 325.65063477 C2.5463442 322.93624159 4.99258905 320.28537964 7.4375 317.63110352 C10.47644492 314.33087567 13.49906211 311.02160878 16.4375 307.63110352 C19.8442735 303.70021102 23.36752785 299.87913779 26.890625 296.05297852 C29.44305143 293.27616294 31.96733288 290.48129635 34.4375 287.63110352 C37.8442735 283.70021102 41.36752785 279.87913779 44.890625 276.05297852 C47.44305143 273.27616294 49.96733288 270.48129635 52.4375 267.63110352 C55.8442735 263.70021102 59.36752785 259.87913779 62.890625 256.05297852 C65.44305143 253.27616294 67.96733288 250.48129635 70.4375 247.63110352 C73.8442735 243.70021102 77.36752785 239.87913779 80.890625 236.05297852 C83.44305143 233.27616294 85.96733288 230.48129635 88.4375 227.63110352 C91.8442735 223.70021102 95.36752785 219.87913779 98.890625 216.05297852 C101.99828109 212.67212189 105.04594083 209.25006382 108.0390625 205.76782227 C109.58699417 204.02560288 111.1631616 202.33429701 112.7734375 200.65063477 C113.27423828 200.12147461 113.77503906 199.59231445 114.29101562 199.04711914 C115.2842461 198.00033837 116.28526239 196.96087512 117.29492188 195.92993164 C120.06944262 192.99105283 122.00574606 190.78046398 121.9375 186.63110352 C120.55976297 184.56180973 120.55976297 184.56180973 118.4375 182.81860352 C115.68292471 180.26384198 113.0662322 177.73811735 110.625 174.88110352 C107.6681288 171.44601397 104.63192837 168.09049198 101.5625 164.75610352 C96.64930616 159.41498364 91.78370499 154.03314563 86.9375 148.63110352 C85.43778872 146.96417704 83.93778679 145.29751203 82.4375 143.63110352 C1.4375 53.63110352 1.4375 53.63110352 -0.81640625 51.12329102 C-2.29877852 49.47850231 -3.78567544 47.83777878 -5.27734375 46.20141602 C-9.45732814 41.60269857 -13.55518645 36.94306549 -17.5625 32.19360352 C-18.3978125 31.20489258 -19.233125 30.21618164 -20.09375 29.19750977 C-23.94167661 24.18146258 -23.64998655 18.71031214 -23.0625 12.63110352 C-21.5116938 7.31687591 -18.05780849 4.45340114 -13.43603516 1.67643929 C-9.06826025 -0.24718562 -4.70468786 -0.05468267 0 0 Z " transform="translate(23.0625,67.368896484375)" style="fill-rule: nonzero; paint-order: fill; fill: url(&quot;#gradient-2-1&quot;);"/>
  <path d="M0 0 C1.62523842 -0.0076664 1.62523842 -0.0076664 3.28330994 -0.01548767 C6.86349009 -0.02938323 10.44347774 -0.02842695 14.02368164 -0.02612305 C16.5132301 -0.03000986 19.00277789 -0.0343445 21.49232483 -0.03910828 C26.71007436 -0.04657032 31.92775623 -0.04627918 37.14550781 -0.04101562 C42.50267743 -0.03564338 47.85965809 -0.04268973 53.21679688 -0.06152344 C59.68703235 -0.08397918 66.15710999 -0.0917765 72.62738228 -0.08785057 C75.0925406 -0.08836402 77.55770264 -0.09360615 80.0228405 -0.10366249 C83.46983719 -0.11599884 86.91629321 -0.10925161 90.36328125 -0.09765625 C91.890065 -0.10912186 91.890065 -0.10912186 93.44769287 -0.12081909 C100.16360401 -0.07088573 104.59203961 0.82453671 109.68383789 5.5246582 C110.52946289 6.4321582 111.37508789 7.3396582 112.24633789 8.2746582 C113.36905639 9.38114463 114.49422519 10.48514823 115.62133789 11.5871582 C118.63637421 14.60219452 121.44744146 17.74553284 124.23071289 20.97387695 C126.69114058 23.78238841 129.21608782 26.52927699 131.74633789 29.2746582 C135.34666237 33.18429099 138.89051803 37.13332759 142.37133789 41.1496582 C144.79183864 43.89289239 147.26834431 46.58350389 149.74633789 49.2746582 C153.34646545 53.18447416 156.89051394 57.13332288 160.37133789 61.1496582 C162.79183864 63.89289239 165.26834431 66.58350389 167.74633789 69.2746582 C171.34646545 73.18447416 174.89051394 77.13332288 178.37133789 81.1496582 C180.79183864 83.89289239 183.26834431 86.58350389 185.74633789 89.2746582 C189.34646545 93.18447416 192.89051394 97.13332288 196.37133789 101.1496582 C198.79183864 103.89289239 201.26834431 106.58350389 203.74633789 109.2746582 C207.34646545 113.18447416 210.89051394 117.13332288 214.37133789 121.1496582 C216.79183864 123.89289239 219.26834431 126.58350389 221.74633789 129.2746582 C225.34646545 133.18447416 228.89051394 137.13332288 232.37133789 141.1496582 C234.79183864 143.89289239 237.26834431 146.58350389 239.74633789 149.2746582 C243.34409027 153.18189466 246.89123714 157.12310068 250.35961914 161.14575195 C251.87062768 162.85072018 253.41800424 164.52342992 254.97680664 166.18481445 C255.46407227 166.70495117 255.95133789 167.22508789 256.45336914 167.76098633 C257.4099241 168.77937664 258.37182358 169.79278498 259.34008789 170.80004883 C264.11579212 175.89917971 267.81263134 180.92875249 267.87133789 188.1496582 C267.90485352 189.09583008 267.93836914 190.04200195 267.97290039 191.0168457 C266.14408723 199.21700792 259.50079306 205.48307207 253.80883789 211.3371582 C252.53795167 212.66007661 251.26841642 213.98429419 250.00024414 215.30981445 C249.37714355 215.96095215 248.75404297 216.61208984 248.11206055 217.28295898 C245.63318641 219.92921065 243.25714243 222.65754101 240.8828125 225.39746094 C238.55290164 228.07009776 236.15247948 230.67036378 233.74633789 233.2746582 C230.70664793 236.57418597 227.6847573 239.88417427 224.74633789 243.2746582 C221.33956439 247.2055507 217.81631004 251.02662393 214.29321289 254.8527832 C211.74078646 257.62959877 209.21650501 260.42446537 206.74633789 263.2746582 C203.33956439 267.2055507 199.81631004 271.02662393 196.29321289 274.8527832 C193.74078646 277.62959877 191.21650501 280.42446537 188.74633789 283.2746582 C185.33956439 287.2055507 181.81631004 291.02662393 178.29321289 294.8527832 C175.74078646 297.62959877 173.21650501 300.42446537 170.74633789 303.2746582 C167.33956439 307.2055507 163.81631004 311.02662393 160.29321289 314.8527832 C157.74078646 317.62959877 155.21650501 320.42446537 152.74633789 323.2746582 C149.33956439 327.2055507 145.81631004 331.02662393 142.29321289 334.8527832 C139.74078646 337.62959877 137.21650501 340.42446537 134.74633789 343.2746582 C131.34399685 347.20043633 127.82621431 351.01740337 124.30639648 354.83740234 C121.61841163 357.76015586 118.97041917 360.71016258 116.37133789 363.7121582 C107.1661894 374.30137437 107.1661894 374.30137437 101.24633789 376.2746582 C99.72447833 376.36983395 98.19881859 376.40953717 96.67399597 376.4151001 C95.73615768 376.42081024 94.7983194 376.42652039 93.83206177 376.43240356 C92.80499115 376.43352142 91.77792053 376.43463928 90.71972656 376.43579102 C89.63652634 376.44075592 88.55332611 376.44572083 87.43730164 376.45083618 C83.84629689 376.46546653 80.25533632 376.47226128 76.66430664 376.4777832 C74.17190042 376.48353392 71.67949421 376.48929167 69.18708801 376.49505615 C64.62607525 376.50422449 60.06507518 376.5105238 55.50405425 376.5135529 C49.46454757 376.51758627 43.42519636 376.52986178 37.38574219 376.5559082 C30.90485942 376.58342872 24.42411014 376.59630024 17.94317055 376.59822845 C15.47242434 376.60125658 13.00167902 376.60929046 10.53096581 376.62241364 C7.07419751 376.63946353 3.61792607 376.63759617 0.16113281 376.63110352 C-0.85986511 376.6403183 -1.88086304 376.64953308 -2.93280029 376.6590271 C-9.0456119 376.62305197 -13.72204574 376.10464688 -18.39819336 371.73950195 C-21.77932367 367.31802386 -22.93395066 365.13308071 -23.06616211 359.5871582 C-23.10354492 358.57266602 -23.14092773 357.55817383 -23.17944336 356.51293945 C-22.22399271 349.24625512 -17.33786306 344.39750575 -12.44116211 339.3371582 C-11.26977137 338.10225637 -10.0991904 336.86658588 -8.92944336 335.63012695 C-8.37466309 335.04666504 -7.81988281 334.46320313 -7.24829102 333.86206055 C-5.49330267 331.99813794 -3.79971072 330.08905038 -2.12866211 328.1496582 C0.76378738 324.79671924 3.74672882 321.53152018 6.74633789 318.2746582 C9.78526124 314.97440991 12.80789945 311.6651641 15.74633789 308.2746582 C19.15311139 304.34376571 22.67636574 300.52269248 26.19946289 296.6965332 C28.75188933 293.91971763 31.27617077 291.12485103 33.74633789 288.2746582 C37.15311139 284.34376571 40.67636574 280.52269248 44.19946289 276.6965332 C46.75188933 273.91971763 49.27617077 271.12485103 51.74633789 268.2746582 C55.15311139 264.34376571 58.67636574 260.52269248 62.19946289 256.6965332 C64.75188933 253.91971763 67.27617077 251.12485103 69.74633789 248.2746582 C73.15311139 244.34376571 76.67636574 240.52269248 80.19946289 236.6965332 C82.75188933 233.91971763 85.27617077 231.12485103 87.74633789 228.2746582 C91.15311139 224.34376571 94.67636574 220.52269248 98.19946289 216.6965332 C101.30766498 213.31508258 104.353996 209.89058784 107.35180664 206.41137695 C108.89086916 204.6755683 110.45488263 202.98055352 112.04711914 201.29418945 C112.5434082 200.7650293 113.03969727 200.23586914 113.55102539 199.69067383 C114.53336071 198.64598821 115.5213932 197.60662152 116.51586914 196.57348633 C119.25576628 193.65066992 121.03510165 191.10440517 122.24633789 187.2746582 C121.70106445 186.66879883 121.15579102 186.06293945 120.59399414 185.4387207 C0.74633789 52.2746582 0.74633789 52.2746582 -1.50366211 49.77075195 C-2.998489 48.11242837 -4.49846791 46.45873379 -6.00366211 44.80981445 C-23.12796473 25.99091939 -23.12796473 25.99091939 -23.04272461 14.2277832 C-22.66003921 10.3181864 -21.35727064 8.17582199 -18.75366211 5.2746582 C-18.27928711 4.6971582 -17.80491211 4.1196582 -17.31616211 3.5246582 C-12.17253579 -0.59024285 -6.25035166 -0.01518289 0 0 Z " transform="translate(244.753662109375,67.725341796875)" style="fill-rule: nonzero; paint-order: fill; fill: url(&quot;#gradient-2-0&quot;);"/>
</svg>