<?xml version="1.0" encoding="utf-8"?>
<svg version="1.1" xmlns="http://www.w3.org/2000/svg" width="512" height="512" xmlns:bx="https://boxy-svg.com">
  <defs>
    <linearGradient id="gradient-2" bx:pinned="true">
      <stop offset="0.011" style="stop-color: rgb(255, 0, 0);"/>
      <stop offset="0.243" style="stop-color: rgb(255, 203, 0);"/>
      <stop offset="0.415" style="stop-color: rgb(232, 254, 0);"/>
      <stop offset="0.551" style="stop-color: rgb(0, 255, 21);"/>
      <stop offset="0.687" style="stop-color: rgb(0, 221, 225);"/>
      <stop offset="0.817" style="stop-color: rgb(41, 149, 255);"/>
      <stop offset="0.95" style="stop-color: rgb(134, 70, 254);"/>
    </linearGradient>
    <linearGradient id="gradient-2-0" href="#gradient-2" gradientUnits="userSpaceOnUse" x1="122.416" y1="-0.121" x2="122.416" y2="188.6"/>
  </defs>
  <path d="M 267.938 190.631 C 267.12 198.128 261.924 202.426 256.938 207.631 C 255.432 209.292 253.932 210.959 252.438 212.631 C 189.438 282.631 189.438 282.631 126.438 352.631 C 125.702 353.45 124.966 354.268 124.208 355.111 C 122.646 356.845 121.08 358.577 119.513 360.306 C 118.725 361.176 117.938 362.046 117.126 362.943 C 116.418 363.723 115.711 364.503 114.981 365.306 C 112.891 367.594 112.891 367.594 111.176 370.173 C 106.937 374.826 102.041 376.813 95.778 377.145 C 93.811 377.172 91.843 377.177 89.876 377.164 C 88.795 377.173 87.715 377.181 86.601 377.19 C 83.047 377.213 79.493 377.206 75.938 377.197 C 73.458 377.202 70.977 377.209 68.497 377.216 C 63.305 377.226 58.114 377.222 52.923 377.207 C 46.278 377.19 39.635 377.213 32.99 377.248 C 27.87 377.27 22.75 377.269 17.63 377.26 C 15.18 377.259 12.731 377.266 10.281 377.281 C 6.854 377.298 3.428 377.284 0 377.261 C -1.006 377.273 -2.012 377.284 -3.048 377.296 C -9.577 377.208 -14.049 375.929 -19.062 371.629 C -23.113 366.99 -23.522 362.512 -23.593 356.473 C -22.239 349.224 -17.203 344.298 -12.249 339.192 C -10.985 337.865 -9.722 336.537 -8.46 335.208 C -7.864 334.583 -7.268 333.959 -6.654 333.315 C -4.301 330.825 -2.065 328.245 0.169 325.649 C 2.547 322.935 4.994 320.284 7.439 317.629 C 10.478 314.329 13.501 311.02 16.439 307.629 C 19.846 303.698 23.369 299.877 26.892 296.051 C 29.444 293.274 31.969 290.479 34.439 287.629 C 37.846000000000004 283.698 41.369 279.877 44.892 276.051 C 47.444 273.274 49.969 270.479 52.439 267.629 C 55.846000000000004 263.698 59.369 259.877 62.892 256.051 C 65.444 253.274 67.969 250.479 70.439 247.629 C 73.846 243.698 77.369 239.877 80.892 236.051 C 83.444 233.274 85.969 230.479 88.439 227.629 C 91.846 223.698 95.369 219.877 98.892 216.051 C 102 212.67 105.047 209.248 108.04 205.766 C 109.588 204.024 111.164 202.332 112.774 200.649 C 113.275 200.12 113.776 199.591 114.292 199.045 C 115.285 197.998 116.286 196.959 117.296 195.928 C 120.071 192.989 122.007 190.779 121.939 186.629 C 121.811 186.436 121.694 186.261 121.587 186.101 L 267.72 186.974 C 267.856 188.114 267.928 189.325 267.939 190.629 L 267.938 190.631 Z" transform="translate(23.0625,67.368896484375)" style="fill-rule: nonzero; paint-order: fill; fill: rgba(255, 0, 0, 0.9);"/>
  <path d="M 0 0 C 1.621 -0.011 1.621 -0.011 3.275 -0.022 C 6.83 -0.039 10.383 -0.02 13.938 0.002 C 16.418 0.001 18.899 -0.001 21.379 -0.005 C 26.571 -0.008 31.762 0.007 36.953 0.034 C 43.598 0.068 50.241 0.062 56.886 0.043000000000000003 C 62.006 0.032 67.126 0.041 72.246 0.056 C 74.696 0.061 77.145 0.061 79.595 0.054000000000000006 C 83.022 0.049 86.449 0.06899999999999999 89.876 0.096 C 90.882 0.089 91.888 0.083 92.924 0.07600000000000001 C 100.553 0.17900000000000002 106.409 1.871 111.88 7.364 C 112.745 8.359 113.61 9.354 114.501 10.38 C 114.972 10.914 115.442 11.447 115.927 11.997 C 117.276 13.531 118.608 15.08 119.939 16.63 C 121.105 17.964 122.272 19.297 123.439 20.63 C 124.243 21.558 124.243 21.558 125.064 22.505 C 127.485 25.248 129.961 27.939 132.439 30.63 C 136.039 34.54 139.583 38.489 143.064 42.505 C 145.485 45.248 147.961 47.939 150.439 50.63 C 154.039 54.54 157.583 58.489 161.064 62.505 C 163.485 65.248 165.961 67.939 168.439 70.63 C 172.039 74.54 175.583 78.489 179.064 82.505 C 181.485 85.248 183.961 87.939 186.439 90.63 C 190.039 94.54 193.583 98.489 197.064 102.505 C 199.485 105.248 201.961 107.939 204.439 110.63 C 208.039 114.54 211.583 118.489 215.064 122.505 C 217.485 125.248 219.961 127.939 222.439 130.63 C 226.039 134.54 229.583 138.489 233.064 142.505 C 235.485 145.248 237.961 147.939 240.439 150.63 C 244.035 154.535 247.578 158.476 251.048 162.493 C 252.578 164.223 254.13 165.921 255.704 167.61 C 256.196 168.139 256.688 168.668 257.194 169.214 C 258.165 170.257 259.141 171.296 260.12 172.331 C 264.668 177.218 267.027 181.176 267.719 186.975 L 121.586 186.102 C 120.542 184.545 120.363 184.398 118.438 182.817 C 115.683 180.262 113.067 177.737 110.626 174.88 C 107.669 171.445 104.633 168.089 101.564 164.755 C 96.651 159.414 91.785 154.032 86.939 148.63 C 85.439 146.963 83.939 145.296 82.439 143.63 C 1.439 53.63 1.439 53.63 -0.8150000000000001 51.122 C -2.297 49.477 -3.784 47.836 -5.276 46.2 C -9.456 41.601 -13.554 36.942 -17.561 32.192 C -18.396 31.203 -19.232 30.215 -20.092 29.196 C -23.94 24.18 -23.648 18.709 -23.061 12.63 C -21.51 7.316 -18.056 4.452 -13.435 1.6749999999999998 C -9.067 -0.24900000000000003 -4.704 -0.056 0.001 -0.001 L 0 0 Z" transform="translate(23.0625,67.368896484375)" style="fill-rule: nonzero; paint-order: fill; fill: rgb(246, 255, 0);"/>
  <path d="M 0 0 C 1.625 -0.008 1.625 -0.008 3.283 -0.015 C 6.863 -0.028999999999999998 10.443 -0.028 14.023 -0.026000000000000002 C 16.513 -0.03 19.002 -0.034 21.492 -0.039 C 26.71 -0.046 31.927 -0.046 37.145 -0.041 C 42.502 -0.036 47.859 -0.043000000000000003 53.216 -0.062 C 59.686 -0.084 66.156 -0.092 72.627 -0.088 C 75.092 -0.089 77.557 -0.094 80.022 -0.10400000000000001 C 83.469 -0.116 86.915 -0.11 90.362 -0.098 C 91.889 -0.109 91.889 -0.109 93.446 -0.12100000000000001 C 100.162 -0.07100000000000001 104.59 0.8240000000000001 109.682 5.524 C 110.528 6.431 111.373 7.339 112.245 8.274000000000001 C 113.368 9.38 114.493 10.484 115.62 11.587 C 118.635 14.602 121.446 17.745 124.229 20.974 C 126.689 23.783 129.214 26.529 131.745 29.275 C 135.345 33.185 138.889 37.134 142.37 41.15 C 144.791 43.893 147.267 46.584 149.745 49.275 C 153.345 53.185 156.889 57.134 160.37 61.15 C 162.791 63.893 165.267 66.584 167.745 69.275 C 171.345 73.185 174.889 77.134 178.37 81.15 C 180.791 83.893 183.267 86.584 185.745 89.275 C 189.345 93.185 192.889 97.134 196.37 101.15 C 198.791 103.893 201.267 106.584 203.745 109.275 C 207.345 113.185 210.889 117.134 214.37 121.15 C 216.791 123.893 219.267 126.584 221.745 129.275 C 225.345 133.185 228.889 137.134 232.37 141.15 C 234.791 143.893 237.267 146.584 239.745 149.275 C 243.343 153.182 246.89 157.123 250.358 161.146 C 251.869 162.851 253.416 164.524 254.975 166.185 C 255.462 166.705 255.95 167.225 256.452 167.761 C 257.409 168.779 258.37 169.793 259.339 170.8 C 264.115 175.899 267.812 180.929 267.87 188.15 C 267.875 188.3 267.881 188.45 267.886 188.6 L 121.933 188.197 C 122.041 187.897 122.145 187.59 122.245 187.274 C 121.7 186.668 121.154 186.062 120.593 185.438 C 0.745 52.274 0.745 52.274 -1.505 49.77 C -3 48.112 -4.5 46.458 -6.005 44.809 C -23.129 25.99 -23.129 25.99 -23.044 14.227 C -22.661 10.317 -21.359 8.175 -18.755 5.274 C -18.281 4.696 -17.806 4.119 -17.317 3.524 C -12.173 -0.591 -6.251 -0.016 -0.001 -0.001 L 0 0 Z" transform="translate(244.753662109375,67.725341796875)" style="fill-rule: nonzero; paint-order: fill; fill: url(&quot;#gradient-2-0&quot;);"/>
  <path d="M 267.973 191.017 C 266.144 199.217 259.501 205.483 253.809 211.337 C 252.538 212.66 251.269 213.984 250 215.31 C 249.377 215.961 248.754 216.612 248.112 217.283 C 245.633 219.929 243.257 222.658 240.883 225.398 C 238.553 228.071 236.153 230.671 233.747 233.275 C 230.707 236.575 227.685 239.885 224.747 243.275 C 221.34 247.206 217.817 251.027 214.294 254.853 C 211.742 257.63 209.217 260.425 206.747 263.275 C 203.34 267.206 199.817 271.027 196.294 274.853 C 193.742 277.63 191.217 280.425 188.747 283.275 C 185.34 287.206 181.817 291.027 178.294 294.853 C 175.742 297.63 173.217 300.425 170.747 303.275 C 167.34 307.206 163.817 311.027 160.294 314.853 C 157.742 317.63 155.217 320.425 152.747 323.275 C 149.34 327.206 145.817 331.027 142.294 334.853 C 139.742 337.63 137.217 340.425 134.747 343.275 C 131.345 347.201 127.827 351.018 124.307 354.838 C 121.619 357.761 118.971 360.711 116.372 363.713 C 107.167 374.302 107.167 374.302 101.247 376.276 C 99.725 376.371 98.199 376.411 96.675 376.416 C 95.737 376.422 94.799 376.427 93.833 376.433 C 92.806 376.434 91.779 376.435 90.721 376.436 C 89.638 376.441 88.555 376.446 87.439 376.451 C 83.848 376.466 80.257 376.472 76.666 376.478 C 74.174 376.484 71.681 376.49 69.189 376.495 C 64.628 376.504 60.067 376.51 55.506 376.513 C 49.466 376.517 43.427 376.529 37.388 376.555 C 30.907 376.583 24.426 376.595 17.945 376.597 C 15.474 376.6 13.004 376.608 10.533 376.621 C 7.076 376.638 3.62 376.636 0.163 376.63 C -0.8580000000000001 376.639 -1.879 376.648 -2.931 376.658 C -9.044 376.622 -13.72 376.104 -18.396 371.738 C -21.777 367.317 -22.932 365.132 -23.064 359.586 C -23.101 358.572 -23.139 357.557 -23.177 356.512 C -22.222 349.245 -17.335 344.397 -12.439 339.336 C -11.268 338.101 -10.097 336.865 -8.927 335.629 C -8.372 335.046 -7.817 334.462 -7.246 333.861 C -5.491 331.997 -3.7969999999999997 330.088 -2.126 328.149 C 0.766 324.796 3.749 321.531 6.749 318.274 C 9.788 314.974 12.811 311.665 15.749 308.274 C 19.156 304.343 22.679 300.522 26.202 296.696 C 28.754 293.919 31.279 291.124 33.749 288.274 C 37.156 284.343 40.679 280.522 44.202 276.696 C 46.754 273.919 49.279 271.124 51.749 268.274 C 55.156 264.343 58.679 260.522 62.202 256.696 C 64.754 253.919 67.279 251.124 69.749 248.274 C 73.156 244.343 76.679 240.522 80.202 236.696 C 82.754 233.919 85.279 231.124 87.749 228.274 C 91.156 224.343 94.679 220.522 98.202 216.696 C 101.31 213.315 104.357 209.89 107.354 206.411 C 108.893 204.675 110.457 202.98 112.049 201.294 C 112.545 200.765 113.042 200.236 113.553 199.69 C 114.535 198.645 115.523 197.606 116.518 196.573 C 119.032 193.891 120.737 191.527 121.937 188.197 L 267.89 188.6 C 267.918 189.397 267.947 190.197 267.976 191.017 L 267.973 191.017 Z" transform="translate(244.753662109375,67.725341796875)" style="fill-rule: nonzero; paint-order: fill; fill: rgb(247, 255, 0);"/>
</svg>